<svg id="svg" version="1.1" xmlns="http://www.w3.org/2000/svg" xmlns:xlink="http://www.w3.org/1999/xlink" width="400" height="400" viewBox="0, 0, 400,400"><g id="svgg"><path id="path4" d="M298.633 212.564 C 299.063 212.801,299.862 213.367,300.409 213.822 C 300.956 214.276,300.827 214.077,300.121 213.379 C 299.416 212.681,298.617 212.115,298.346 212.121 C 298.074 212.128,298.203 212.327,298.633 212.564 M107.202 214.551 L 106.055 215.820 107.324 214.673 C 108.508 213.604,108.773 213.281,108.472 213.281 C 108.404 213.281,107.833 213.853,107.202 214.551 M303.614 225.586 C 303.618 226.445,303.698 226.751,303.792 226.265 C 303.885 225.779,303.882 225.076,303.784 224.702 C 303.686 224.329,303.610 224.727,303.614 225.586 M252.833 299.805 C 252.837 300.664,252.917 300.970,253.011 300.484 C 253.104 299.998,253.101 299.295,253.003 298.921 C 252.905 298.548,252.829 298.945,252.833 299.805 M286.860 307.813 C 286.860 309.854,286.925 310.688,287.006 309.668 C 287.086 308.647,287.086 306.978,287.006 305.957 C 286.925 304.937,286.860 305.771,286.860 307.813 M248.608 309.473 L 247.461 310.742 248.730 309.595 C 249.429 308.964,250.000 308.393,250.000 308.325 C 250.000 308.024,249.678 308.289,248.608 309.473 M121.591 310.547 C 121.591 311.514,121.667 311.909,121.760 311.426 C 121.853 310.942,121.853 310.151,121.760 309.668 C 121.667 309.185,121.591 309.580,121.591 310.547 M121.583 320.508 C 121.587 321.367,121.667 321.673,121.761 321.187 C 121.854 320.701,121.851 319.998,121.753 319.624 C 121.655 319.251,121.579 319.648,121.583 320.508 M271.463 340.527 L 270.117 341.992 271.582 340.646 C 272.945 339.393,273.226 339.063,272.928 339.063 C 272.863 339.063,272.204 339.722,271.463 340.527 M132.422 347.070 C 133.151 347.822,133.835 348.438,133.942 348.438 C 134.050 348.438,133.541 347.822,132.813 347.070 C 132.084 346.318,131.399 345.703,131.292 345.703 C 131.185 345.703,131.693 346.318,132.422 347.070 M199.786 365.595 C 199.909 365.794,199.700 366.037,199.321 366.136 C 198.911 366.243,199.086 366.334,199.755 366.361 C 200.710 366.400,200.805 366.319,200.391 365.820 C 199.858 365.178,199.430 365.019,199.786 365.595 M191.699 366.694 C 192.827 366.773,194.673 366.773,195.801 366.694 C 196.929 366.615,196.006 366.551,193.750 366.551 C 191.494 366.551,190.571 366.615,191.699 366.694 " stroke="none" fill="#3c3442" fill-rule="evenodd"></path><path id="path0" d="M233.008 34.786 C 228.106 35.059,207.773 37.683,201.367 38.869 C 199.648 39.188,191.738 41.096,183.789 43.110 C 175.840 45.124,165.381 47.770,160.547 48.990 C 148.878 51.936,138.038 57.236,129.513 64.164 C 104.696 84.333,96.437 94.612,90.052 113.278 C 82.419 135.593,82.859 147.391,91.994 165.430 C 100.868 182.953,102.969 184.579,123.789 190.033 C 128.215 191.193,135.967 193.271,141.016 194.651 C 146.064 196.031,151.509 197.476,153.114 197.862 C 156.431 198.660,156.657 198.473,149.805 200.589 C 141.670 203.101,124.730 211.216,119.494 215.109 L 116.527 217.316 118.127 218.167 C 119.007 218.635,124.759 221.748,130.909 225.085 C 145.613 233.063,148.096 234.188,164.810 240.440 C 166.456 241.056,168.366 242.120,169.237 242.907 L 170.769 244.291 174.154 242.503 C 180.295 239.261,193.819 235.661,200.391 235.520 C 203.003 235.464,210.406 236.141,213.086 236.681 C 214.160 236.898,216.968 237.446,219.326 237.899 C 221.683 238.352,225.520 239.242,227.852 239.876 L 232.092 241.029 233.828 239.501 C 235.191 238.301,237.513 237.195,244.637 234.353 C 255.286 230.105,265.924 225.564,284.060 217.524 C 297.030 211.774,297.240 211.698,298.513 212.240 C 309.170 216.778,302.240 249.005,285.943 270.703 C 284.087 273.174,282.442 275.408,282.287 275.667 C 282.100 275.980,282.674 276.427,283.991 276.993 C 287.851 278.654,287.906 280.664,284.200 284.654 L 281.767 287.273 283.625 291.195 C 289.369 303.322,288.052 317.829,280.138 329.599 C 267.076 349.024,253.890 358.060,230.905 363.337 C 226.914 364.253,226.915 364.254,228.880 361.662 C 230.373 359.693,230.842 358.747,230.176 359.054 C 230.015 359.128,228.037 360.091,225.781 361.194 C 212.892 367.493,212.687 367.504,197.168 362.719 C 194.934 362.030,194.802 362.213,196.777 363.262 C 197.583 363.689,198.850 364.553,199.592 365.181 L 200.943 366.323 197.470 366.612 C 191.440 367.114,174.440 364.644,160.051 361.174 C 142.100 356.845,129.713 347.748,125.000 335.431 C 120.209 322.912,120.279 307.591,125.185 294.890 C 125.360 294.437,125.016 294.112,123.900 293.674 C 121.630 292.782,121.497 291.630,123.238 287.963 C 124.523 285.257,124.584 284.978,123.963 284.630 C 122.441 283.779,119.555 280.751,115.155 275.391 C 105.617 263.771,101.888 257.037,100.447 248.828 C 99.734 244.766,99.675 244.146,99.640 240.234 L 99.605 236.523 98.652 237.695 C 87.874 250.942,81.671 281.414,85.145 304.049 C 88.249 324.277,103.298 348.378,117.285 355.519 C 130.094 362.060,150.601 368.832,168.555 372.451 C 174.125 373.574,209.777 376.909,217.188 377.000 L 222.070 377.061 232.031 373.354 C 237.510 371.315,244.629 368.418,247.852 366.917 C 251.074 365.415,254.678 363.868,255.859 363.478 C 266.006 360.133,282.310 349.894,291.517 341.087 C 310.861 322.582,319.699 308.233,323.817 288.643 C 326.775 274.571,325.548 251.451,321.151 238.412 C 317.654 228.043,315.787 224.854,308.153 216.211 C 295.459 201.838,291.162 199.191,268.945 192.054 C 267.871 191.709,256.270 188.954,243.164 185.931 C 171.158 169.326,141.646 158.533,135.595 146.590 C 131.247 138.008,135.390 115.429,142.701 107.865 C 146.247 104.197,159.844 91.785,163.086 89.258 C 170.396 83.559,187.046 76.643,202.113 73.047 C 204.710 72.427,210.880 70.948,215.822 69.760 C 220.764 68.573,229.290 66.707,234.767 65.614 C 257.174 61.146,266.361 57.731,270.467 52.347 C 275.198 46.143,273.460 38.093,266.888 35.774 C 263.347 34.525,246.495 34.033,233.008 34.786 M262.093 38.730 C 266.526 39.334,267.940 40.299,268.729 43.262 C 270.604 50.306,260.904 55.748,238.938 59.975 C 233.010 61.116,232.763 61.093,233.895 59.495 C 234.696 58.364,238.281 52.370,238.281 52.162 C 238.281 52.098,235.601 51.299,232.324 50.386 C 229.048 49.473,226.301 48.668,226.219 48.597 C 226.138 48.526,227.632 46.376,229.540 43.820 L 233.008 39.172 236.133 38.872 C 246.068 37.920,255.758 37.867,262.093 38.730 " stroke="none" fill="#584a70" fill-rule="evenodd"></path><path id="path1" d="M283.398 218.016 C 265.211 226.066,252.800 231.349,243.639 234.940 C 237.630 237.297,235.447 238.348,233.824 239.671 C 232.675 240.606,231.650 241.285,231.545 241.180 C 230.533 240.169,212.602 236.558,205.469 235.930 C 196.874 235.173,182.272 238.290,174.318 242.580 C 170.837 244.458,171.107 244.444,169.026 242.856 C 167.947 242.031,164.409 240.471,159.160 238.503 C 148.255 234.416,144.125 232.481,130.273 224.972 C 123.828 221.478,117.588 218.098,116.406 217.460 C 115.225 216.823,113.306 215.622,112.143 214.791 C 109.487 212.894,109.118 212.905,107.157 214.941 C 103.095 219.159,101.822 222.863,99.974 235.833 C 98.968 242.895,100.854 253.248,104.338 259.784 C 107.725 266.138,119.089 280.719,122.894 283.592 L 124.896 285.103 123.581 287.716 C 121.680 291.492,122.153 293.750,124.846 293.750 C 125.666 293.750,125.808 293.884,125.577 294.434 C 118.697 310.756,121.035 333.476,130.765 344.865 C 136.224 351.255,146.834 357.530,156.500 360.087 C 172.812 364.400,195.528 367.581,199.312 366.082 C 200.092 365.773,198.602 364.385,196.091 363.082 C 193.602 361.791,195.528 362.057,201.784 363.869 C 205.185 364.854,209.207 365.848,210.722 366.078 L 213.477 366.497 217.578 364.733 C 220.750 363.369,228.089 359.948,230.566 358.679 C 231.279 358.314,230.729 359.413,229.131 361.550 C 227.054 364.325,226.885 364.135,230.664 363.270 C 253.962 357.936,267.188 348.736,280.688 328.475 C 287.786 317.820,288.877 302.563,283.365 291.007 L 281.591 287.288 283.754 284.953 C 287.553 280.849,287.626 279.077,284.068 277.274 C 281.468 275.956,281.325 276.546,285.651 270.768 C 301.790 249.214,308.880 217.893,298.801 212.681 C 297.196 211.851,297.803 211.641,283.398 218.016 M252.956 300.879 C 252.250 307.275,247.884 311.824,241.094 313.240 C 236.503 314.198,223.469 312.196,226.563 311.008 C 233.629 308.295,244.137 303.302,249.219 300.241 C 253.177 297.857,253.288 297.876,252.956 300.879 M161.770 302.956 C 166.402 305.282,173.428 308.073,180.406 310.360 C 183.487 311.370,185.860 312.328,185.679 312.488 C 185.499 312.649,183.506 313.289,181.250 313.910 C 168.662 317.376,158.771 312.940,157.910 303.442 C 157.663 300.723,157.392 300.757,161.770 302.956 " stroke="none" fill="#292929" fill-rule="evenodd"></path><path id="path2" d="M239.290 38.801 C 235.383 39.088,233.017 39.422,232.925 39.700 C 232.844 39.943,231.373 41.949,229.655 44.158 C 227.938 46.366,226.671 48.294,226.841 48.442 C 227.010 48.589,229.568 49.373,232.526 50.184 C 235.484 50.995,238.000 51.814,238.118 52.005 C 238.319 52.330,236.176 56.458,234.343 59.277 C 233.333 60.830,233.267 60.824,238.945 59.746 C 261.596 55.449,272.249 48.908,267.986 41.916 C 265.999 38.657,256.006 37.572,239.290 38.801 M249.609 300.451 C 246.249 302.550,236.554 307.320,231.545 309.340 C 225.956 311.593,225.994 311.513,230.145 312.292 C 243.295 314.759,251.399 310.702,252.555 301.074 C 252.874 298.418,252.867 298.416,249.609 300.451 M158.322 303.880 C 159.385 312.851,169.042 316.919,181.197 313.515 L 185.245 312.381 178.658 310.169 C 172.302 308.034,164.306 304.834,160.468 302.890 C 158.039 301.659,158.058 301.650,158.322 303.880 " stroke="none" fill="#f9f4e4" fill-rule="evenodd"></path><path id="path3" d="M233.506 34.662 C 234.425 34.744,235.831 34.743,236.631 34.659 C 237.431 34.575,236.680 34.507,234.961 34.509 C 233.242 34.510,232.588 34.579,233.506 34.662 M251.066 38.173 C 251.759 38.259,252.989 38.260,253.800 38.176 C 254.610 38.091,254.043 38.021,252.539 38.019 C 251.035 38.017,250.372 38.086,251.066 38.173 M242.285 38.561 C 242.876 38.651,243.843 38.651,244.434 38.561 C 245.024 38.472,244.541 38.398,243.359 38.398 C 242.178 38.398,241.694 38.472,242.285 38.561 M236.621 38.948 C 237.104 39.041,237.896 39.041,238.379 38.948 C 238.862 38.854,238.467 38.778,237.500 38.778 C 236.533 38.778,236.138 38.854,236.621 38.948 M231.639 41.113 C 231.064 41.899,230.970 42.172,231.392 41.829 C 232.033 41.309,233.001 39.844,232.704 39.844 C 232.630 39.844,232.151 40.415,231.639 41.113 M267.221 40.866 C 267.740 41.536,268.243 42.014,268.339 41.929 C 268.435 41.843,268.010 41.295,267.396 40.711 L 266.278 39.648 267.221 40.866 M265.995 50.293 L 264.648 51.758 266.113 50.412 C 267.477 49.159,267.758 48.828,267.459 48.828 C 267.394 48.828,266.735 49.487,265.995 50.293 M233.464 60.026 C 232.944 60.546,233.223 60.936,234.082 60.892 C 234.751 60.858,234.796 60.804,234.273 60.667 C 233.894 60.569,233.685 60.325,233.807 60.127 C 234.066 59.709,233.845 59.644,233.464 60.026 M112.681 78.223 L 110.742 80.273 112.793 78.335 C 114.699 76.534,115.023 76.172,114.731 76.172 C 114.670 76.172,113.747 77.095,112.681 78.223 M107.983 82.910 L 106.836 84.180 108.105 83.032 C 109.289 81.963,109.555 81.641,109.253 81.641 C 109.186 81.641,108.614 82.212,107.983 82.910 M152.514 98.535 L 151.367 99.805 152.637 98.657 C 153.820 97.588,154.086 97.266,153.784 97.266 C 153.717 97.266,153.146 97.837,152.514 98.535 M147.443 103.223 L 145.898 104.883 147.559 103.339 C 149.103 101.903,149.398 101.563,149.103 101.563 C 149.039 101.563,148.292 102.310,147.443 103.223 M137.500 149.732 C 137.500 149.799,138.071 150.370,138.770 151.001 L 140.039 152.148 138.892 150.879 C 137.822 149.696,137.500 149.430,137.500 149.732 M325.522 269.922 C 325.522 271.533,325.591 272.192,325.675 271.387 C 325.759 270.581,325.759 269.263,325.675 268.457 C 325.591 267.651,325.522 268.311,325.522 269.922 M84.466 280.469 C 84.466 281.221,84.546 281.528,84.644 281.152 C 84.743 280.776,84.743 280.161,84.644 279.785 C 84.546 279.409,84.466 279.717,84.466 280.469 M84.116 291.406 C 84.116 293.018,84.185 293.677,84.269 292.871 C 84.353 292.065,84.353 290.747,84.269 289.941 C 84.185 289.136,84.116 289.795,84.116 291.406 M171.777 315.126 C 172.476 315.213,173.618 315.213,174.316 315.126 C 175.015 315.040,174.443 314.969,173.047 314.969 C 171.650 314.969,171.079 315.040,171.777 315.126 M297.643 335.059 L 295.508 337.305 297.754 335.170 C 299.841 333.186,300.179 332.813,299.889 332.813 C 299.828 332.813,298.817 333.823,297.643 335.059 M292.565 340.137 L 290.430 342.383 292.676 340.248 C 294.762 338.264,295.101 337.891,294.811 337.891 C 294.750 337.891,293.739 338.901,292.565 340.137 M215.534 377.236 C 216.236 377.323,217.291 377.321,217.878 377.232 C 218.465 377.143,217.891 377.072,216.602 377.074 C 215.313 377.076,214.832 377.149,215.534 377.236 " stroke="none" fill="#858091" fill-rule="evenodd"></path><path id="path4" d="M298.633 212.564 C 299.063 212.801,299.862 213.367,300.409 213.822 C 300.956 214.276,300.827 214.077,300.121 213.379 C 299.416 212.681,298.617 212.115,298.346 212.121 C 298.074 212.128,298.203 212.327,298.633 212.564 M107.202 214.551 L 106.055 215.820 107.324 214.673 C 108.508 213.604,108.773 213.281,108.472 213.281 C 108.404 213.281,107.833 213.853,107.202 214.551 M303.614 225.586 C 303.618 226.445,303.698 226.751,303.792 226.265 C 303.885 225.779,303.882 225.076,303.784 224.702 C 303.686 224.329,303.610 224.727,303.614 225.586 M252.833 299.805 C 252.837 300.664,252.917 300.970,253.011 300.484 C 253.104 299.998,253.101 299.295,253.003 298.921 C 252.905 298.548,252.829 298.945,252.833 299.805 M286.860 307.813 C 286.860 309.854,286.925 310.688,287.006 309.668 C 287.086 308.647,287.086 306.978,287.006 305.957 C 286.925 304.937,286.860 305.771,286.860 307.813 M248.608 309.473 L 247.461 310.742 248.730 309.595 C 249.429 308.964,250.000 308.393,250.000 308.325 C 250.000 308.024,249.678 308.289,248.608 309.473 M121.591 310.547 C 121.591 311.514,121.667 311.909,121.760 311.426 C 121.853 310.942,121.853 310.151,121.760 309.668 C 121.667 309.185,121.591 309.580,121.591 310.547 M121.583 320.508 C 121.587 321.367,121.667 321.673,121.761 321.187 C 121.854 320.701,121.851 319.998,121.753 319.624 C 121.655 319.251,121.579 319.648,121.583 320.508 M271.463 340.527 L 270.117 341.992 271.582 340.646 C 272.945 339.393,273.226 339.063,272.928 339.063 C 272.863 339.063,272.204 339.722,271.463 340.527 M132.422 347.070 C 133.151 347.822,133.835 348.438,133.942 348.438 C 134.050 348.438,133.541 347.822,132.813 347.070 C 132.084 346.318,131.399 345.703,131.292 345.703 C 131.185 345.703,131.693 346.318,132.422 347.070 M199.786 365.595 C 199.909 365.794,199.700 366.037,199.321 366.136 C 198.911 366.243,199.086 366.334,199.755 366.361 C 200.710 366.400,200.805 366.319,200.391 365.820 C 199.858 365.178,199.430 365.019,199.786 365.595 M191.699 366.694 C 192.827 366.773,194.673 366.773,195.801 366.694 C 196.929 366.615,196.006 366.551,193.750 366.551 C 191.494 366.551,190.571 366.615,191.699 366.694 " stroke="none" fill="#3c3442" fill-rule="evenodd"></path><path id="path0" d="M233.008 34.786 C 228.106 35.059,207.773 37.683,201.367 38.869 C 199.648 39.188,191.738 41.096,183.789 43.110 C 175.840 45.124,165.381 47.770,160.547 48.990 C 148.878 51.936,138.038 57.236,129.513 64.164 C 104.696 84.333,96.437 94.612,90.052 113.278 C 82.419 135.593,82.859 147.391,91.994 165.430 C 100.868 182.953,102.969 184.579,123.789 190.033 C 128.215 191.193,135.967 193.271,141.016 194.651 C 146.064 196.031,151.509 197.476,153.114 197.862 C 156.431 198.660,156.657 198.473,149.805 200.589 C 141.670 203.101,124.730 211.216,119.494 215.109 L 116.527 217.316 118.127 218.167 C 119.007 218.635,124.759 221.748,130.909 225.085 C 145.613 233.063,148.096 234.188,164.810 240.440 C 166.456 241.056,168.366 242.120,169.237 242.907 L 170.769 244.291 174.154 242.503 C 180.295 239.261,193.819 235.661,200.391 235.520 C 203.003 235.464,210.406 236.141,213.086 236.681 C 214.160 236.898,216.968 237.446,219.326 237.899 C 221.683 238.352,225.520 239.242,227.852 239.876 L 232.092 241.029 233.828 239.501 C 235.191 238.301,237.513 237.195,244.637 234.353 C 255.286 230.105,265.924 225.564,284.060 217.524 C 297.030 211.774,297.240 211.698,298.513 212.240 C 309.170 216.778,302.240 249.005,285.943 270.703 C 284.087 273.174,282.442 275.408,282.287 275.667 C 282.100 275.980,282.674 276.427,283.991 276.993 C 287.851 278.654,287.906 280.664,284.200 284.654 L 281.767 287.273 283.625 291.195 C 289.369 303.322,288.052 317.829,280.138 329.599 C 267.076 349.024,253.890 358.060,230.905 363.337 C 226.914 364.253,226.915 364.254,228.880 361.662 C 230.373 359.693,230.842 358.747,230.176 359.054 C 230.015 359.128,228.037 360.091,225.781 361.194 C 212.892 367.493,212.687 367.504,197.168 362.719 C 194.934 362.030,194.802 362.213,196.777 363.262 C 197.583 363.689,198.850 364.553,199.592 365.181 L 200.943 366.323 197.470 366.612 C 191.440 367.114,174.440 364.644,160.051 361.174 C 142.100 356.845,129.713 347.748,125.000 335.431 C 120.209 322.912,120.279 307.591,125.185 294.890 C 125.360 294.437,125.016 294.112,123.900 293.674 C 121.630 292.782,121.497 291.630,123.238 287.963 C 124.523 285.257,124.584 284.978,123.963 284.630 C 122.441 283.779,119.555 280.751,115.155 275.391 C 105.617 263.771,101.888 257.037,100.447 248.828 C 99.734 244.766,99.675 244.146,99.640 240.234 L 99.605 236.523 98.652 237.695 C 87.874 250.942,81.671 281.414,85.145 304.049 C 88.249 324.277,103.298 348.378,117.285 355.519 C 130.094 362.060,150.601 368.832,168.555 372.451 C 174.125 373.574,209.777 376.909,217.188 377.000 L 222.070 377.061 232.031 373.354 C 237.510 371.315,244.629 368.418,247.852 366.917 C 251.074 365.415,254.678 363.868,255.859 363.478 C 266.006 360.133,282.310 349.894,291.517 341.087 C 310.861 322.582,319.699 308.233,323.817 288.643 C 326.775 274.571,325.548 251.451,321.151 238.412 C 317.654 228.043,315.787 224.854,308.153 216.211 C 295.459 201.838,291.162 199.191,268.945 192.054 C 267.871 191.709,256.270 188.954,243.164 185.931 C 171.158 169.326,141.646 158.533,135.595 146.590 C 131.247 138.008,135.390 115.429,142.701 107.865 C 146.247 104.197,159.844 91.785,163.086 89.258 C 170.396 83.559,187.046 76.643,202.113 73.047 C 204.710 72.427,210.880 70.948,215.822 69.760 C 220.764 68.573,229.290 66.707,234.767 65.614 C 257.174 61.146,266.361 57.731,270.467 52.347 C 275.198 46.143,273.460 38.093,266.888 35.774 C 263.347 34.525,246.495 34.033,233.008 34.786 M262.093 38.730 C 266.526 39.334,267.940 40.299,268.729 43.262 C 270.604 50.306,260.904 55.748,238.938 59.975 C 233.010 61.116,232.763 61.093,233.895 59.495 C 234.696 58.364,238.281 52.370,238.281 52.162 C 238.281 52.098,235.601 51.299,232.324 50.386 C 229.048 49.473,226.301 48.668,226.219 48.597 C 226.138 48.526,227.632 46.376,229.540 43.820 L 233.008 39.172 236.133 38.872 C 246.068 37.920,255.758 37.867,262.093 38.730 " stroke="none" fill="#584a70" fill-rule="evenodd"></path><path id="path1" d="M283.398 218.016 C 265.211 226.066,252.800 231.349,243.639 234.940 C 237.630 237.297,235.447 238.348,233.824 239.671 C 232.675 240.606,231.650 241.285,231.545 241.180 C 230.533 240.169,212.602 236.558,205.469 235.930 C 196.874 235.173,182.272 238.290,174.318 242.580 C 170.837 244.458,171.107 244.444,169.026 242.856 C 167.947 242.031,164.409 240.471,159.160 238.503 C 148.255 234.416,144.125 232.481,130.273 224.972 C 123.828 221.478,117.588 218.098,116.406 217.460 C 115.225 216.823,113.306 215.622,112.143 214.791 C 109.487 212.894,109.118 212.905,107.157 214.941 C 103.095 219.159,101.822 222.863,99.974 235.833 C 98.968 242.895,100.854 253.248,104.338 259.784 C 107.725 266.138,119.089 280.719,122.894 283.592 L 124.896 285.103 123.581 287.716 C 121.680 291.492,122.153 293.750,124.846 293.750 C 125.666 293.750,125.808 293.884,125.577 294.434 C 118.697 310.756,121.035 333.476,130.765 344.865 C 136.224 351.255,146.834 357.530,156.500 360.087 C 172.812 364.400,195.528 367.581,199.312 366.082 C 200.092 365.773,198.602 364.385,196.091 363.082 C 193.602 361.791,195.528 362.057,201.784 363.869 C 205.185 364.854,209.207 365.848,210.722 366.078 L 213.477 366.497 217.578 364.733 C 220.750 363.369,228.089 359.948,230.566 358.679 C 231.279 358.314,230.729 359.413,229.131 361.550 C 227.054 364.325,226.885 364.135,230.664 363.270 C 253.962 357.936,267.188 348.736,280.688 328.475 C 287.786 317.820,288.877 302.563,283.365 291.007 L 281.591 287.288 283.754 284.953 C 287.553 280.849,287.626 279.077,284.068 277.274 C 281.468 275.956,281.325 276.546,285.651 270.768 C 301.790 249.214,308.880 217.893,298.801 212.681 C 297.196 211.851,297.803 211.641,283.398 218.016 M252.956 300.879 C 252.250 307.275,247.884 311.824,241.094 313.240 C 236.503 314.198,223.469 312.196,226.563 311.008 C 233.629 308.295,244.137 303.302,249.219 300.241 C 253.177 297.857,253.288 297.876,252.956 300.879 M161.770 302.956 C 166.402 305.282,173.428 308.073,180.406 310.360 C 183.487 311.370,185.860 312.328,185.679 312.488 C 185.499 312.649,183.506 313.289,181.250 313.910 C 168.662 317.376,158.771 312.940,157.910 303.442 C 157.663 300.723,157.392 300.757,161.770 302.956 " stroke="none" fill="#292929" fill-rule="evenodd"></path><path id="path2" d="M239.290 38.801 C 235.383 39.088,233.017 39.422,232.925 39.700 C 232.844 39.943,231.373 41.949,229.655 44.158 C 227.938 46.366,226.671 48.294,226.841 48.442 C 227.010 48.589,229.568 49.373,232.526 50.184 C 235.484 50.995,238.000 51.814,238.118 52.005 C 238.319 52.330,236.176 56.458,234.343 59.277 C 233.333 60.830,233.267 60.824,238.945 59.746 C 261.596 55.449,272.249 48.908,267.986 41.916 C 265.999 38.657,256.006 37.572,239.290 38.801 M249.609 300.451 C 246.249 302.550,236.554 307.320,231.545 309.340 C 225.956 311.593,225.994 311.513,230.145 312.292 C 243.295 314.759,251.399 310.702,252.555 301.074 C 252.874 298.418,252.867 298.416,249.609 300.451 M158.322 303.880 C 159.385 312.851,169.042 316.919,181.197 313.515 L 185.245 312.381 178.658 310.169 C 172.302 308.034,164.306 304.834,160.468 302.890 C 158.039 301.659,158.058 301.650,158.322 303.880 " stroke="none" fill="#f9f4e4" fill-rule="evenodd"></path><path id="path3" d="M233.506 34.662 C 234.425 34.744,235.831 34.743,236.631 34.659 C 237.431 34.575,236.680 34.507,234.961 34.509 C 233.242 34.510,232.588 34.579,233.506 34.662 M251.066 38.173 C 251.759 38.259,252.989 38.260,253.800 38.176 C 254.610 38.091,254.043 38.021,252.539 38.019 C 251.035 38.017,250.372 38.086,251.066 38.173 M242.285 38.561 C 242.876 38.651,243.843 38.651,244.434 38.561 C 245.024 38.472,244.541 38.398,243.359 38.398 C 242.178 38.398,241.694 38.472,242.285 38.561 M236.621 38.948 C 237.104 39.041,237.896 39.041,238.379 38.948 C 238.862 38.854,238.467 38.778,237.500 38.778 C 236.533 38.778,236.138 38.854,236.621 38.948 M231.639 41.113 C 231.064 41.899,230.970 42.172,231.392 41.829 C 232.033 41.309,233.001 39.844,232.704 39.844 C 232.630 39.844,232.151 40.415,231.639 41.113 M267.221 40.866 C 267.740 41.536,268.243 42.014,268.339 41.929 C 268.435 41.843,268.010 41.295,267.396 40.711 L 266.278 39.648 267.221 40.866 M265.995 50.293 L 264.648 51.758 266.113 50.412 C 267.477 49.159,267.758 48.828,267.459 48.828 C 267.394 48.828,266.735 49.487,265.995 50.293 M233.464 60.026 C 232.944 60.546,233.223 60.936,234.082 60.892 C 234.751 60.858,234.796 60.804,234.273 60.667 C 233.894 60.569,233.685 60.325,233.807 60.127 C 234.066 59.709,233.845 59.644,233.464 60.026 M112.681 78.223 L 110.742 80.273 112.793 78.335 C 114.699 76.534,115.023 76.172,114.731 76.172 C 114.670 76.172,113.747 77.095,112.681 78.223 M107.983 82.910 L 106.836 84.180 108.105 83.032 C 109.289 81.963,109.555 81.641,109.253 81.641 C 109.186 81.641,108.614 82.212,107.983 82.910 M152.514 98.535 L 151.367 99.805 152.637 98.657 C 153.820 97.588,154.086 97.266,153.784 97.266 C 153.717 97.266,153.146 97.837,152.514 98.535 M147.443 103.223 L 145.898 104.883 147.559 103.339 C 149.103 101.903,149.398 101.563,149.103 101.563 C 149.039 101.563,148.292 102.310,147.443 103.223 M137.500 149.732 C 137.500 149.799,138.071 150.370,138.770 151.001 L 140.039 152.148 138.892 150.879 C 137.822 149.696,137.500 149.430,137.500 149.732 M325.522 269.922 C 325.522 271.533,325.591 272.192,325.675 271.387 C 325.759 270.581,325.759 269.263,325.675 268.457 C 325.591 267.651,325.522 268.311,325.522 269.922 M84.466 280.469 C 84.466 281.221,84.546 281.528,84.644 281.152 C 84.743 280.776,84.743 280.161,84.644 279.785 C 84.546 279.409,84.466 279.717,84.466 280.469 M84.116 291.406 C 84.116 293.018,84.185 293.677,84.269 292.871 C 84.353 292.065,84.353 290.747,84.269 289.941 C 84.185 289.136,84.116 289.795,84.116 291.406 M171.777 315.126 C 172.476 315.213,173.618 315.213,174.316 315.126 C 175.015 315.040,174.443 314.969,173.047 314.969 C 171.650 314.969,171.079 315.040,171.777 315.126 M297.643 335.059 L 295.508 337.305 297.754 335.170 C 299.841 333.186,300.179 332.813,299.889 332.813 C 299.828 332.813,298.817 333.823,297.643 335.059 M292.565 340.137 L 290.430 342.383 292.676 340.248 C 294.762 338.264,295.101 337.891,294.811 337.891 C 294.750 337.891,293.739 338.901,292.565 340.137 M215.534 377.236 C 216.236 377.323,217.291 377.321,217.878 377.232 C 218.465 377.143,217.891 377.072,216.602 377.074 C 215.313 377.076,214.832 377.149,215.534 377.236 " stroke="none" fill="#858091" fill-rule="evenodd"></path><path id="path4" d="M298.633 212.564 C 299.063 212.801,299.862 213.367,300.409 213.822 C 300.956 214.276,300.827 214.077,300.121 213.379 C 299.416 212.681,298.617 212.115,298.346 212.121 C 298.074 212.128,298.203 212.327,298.633 212.564 M107.202 214.551 L 106.055 215.820 107.324 214.673 C 108.508 213.604,108.773 213.281,108.472 213.281 C 108.404 213.281,107.833 213.853,107.202 214.551 M303.614 225.586 C 303.618 226.445,303.698 226.751,303.792 226.265 C 303.885 225.779,303.882 225.076,303.784 224.702 C 303.686 224.329,303.610 224.727,303.614 225.586 M252.833 299.805 C 252.837 300.664,252.917 300.970,253.011 300.484 C 253.104 299.998,253.101 299.295,253.003 298.921 C 252.905 298.548,252.829 298.945,252.833 299.805 M286.860 307.813 C 286.860 309.854,286.925 310.688,287.006 309.668 C 287.086 308.647,287.086 306.978,287.006 305.957 C 286.925 304.937,286.860 305.771,286.860 307.813 M248.608 309.473 L 247.461 310.742 248.730 309.595 C 249.429 308.964,250.000 308.393,250.000 308.325 C 250.000 308.024,249.678 308.289,248.608 309.473 M121.591 310.547 C 121.591 311.514,121.667 311.909,121.760 311.426 C 121.853 310.942,121.853 310.151,121.760 309.668 C 121.667 309.185,121.591 309.580,121.591 310.547 M121.583 320.508 C 121.587 321.367,121.667 321.673,121.761 321.187 C 121.854 320.701,121.851 319.998,121.753 319.624 C 121.655 319.251,121.579 319.648,121.583 320.508 M271.463 340.527 L 270.117 341.992 271.582 340.646 C 272.945 339.393,273.226 339.063,272.928 339.063 C 272.863 339.063,272.204 339.722,271.463 340.527 M132.422 347.070 C 133.151 347.822,133.835 348.438,133.942 348.438 C 134.050 348.438,133.541 347.822,132.813 347.070 C 132.084 346.318,131.399 345.703,131.292 345.703 C 131.185 345.703,131.693 346.318,132.422 347.070 M199.786 365.595 C 199.909 365.794,199.700 366.037,199.321 366.136 C 198.911 366.243,199.086 366.334,199.755 366.361 C 200.710 366.400,200.805 366.319,200.391 365.820 C 199.858 365.178,199.430 365.019,199.786 365.595 M191.699 366.694 C 192.827 366.773,194.673 366.773,195.801 366.694 C 196.929 366.615,196.006 366.551,193.750 366.551 C 191.494 366.551,190.571 366.615,191.699 366.694 " stroke="none" fill="#3c3442" fill-rule="evenodd"></path></g></svg>